# xmcd CD database file
#
# Track frame offsets:
#	150
#	10715
#	21337
#	34072
#	43957
#	58310
#	68177
#	80897
#	92615
#	110515
#	120710
#	135092
#	147545
#	162065
#	175877
#	190775
#	204075
#	213622
#	226930
#	241860
#	252447
#	264925
#	275642
#	290620
#	302390
#	315697
#
# Disc length: 4380 seconds
#
# Revision: 0
# Processed by: cddbd v1.4PL0 Copyright (c) Steve Scherf et al.
# Submitted via: CDex 1.40Beta9
#
DISCID=75111a1a
DTITLE=Various Artist - The very best of Trucker Country Hits
DYEAR=1900
DGENRE=Country
TTITLE0=Rythm of the road
TTITLE1=Truckers lady
TTITLE2=Me and the old C.B.
TTITLE3=Six days on the road
TTITLE4=Drivin' my life away
TTITLE5=Dixie Winds
TTITLE6=Girl on the billboard
TTITLE7=Ode to 10-33
TTITLE8=Wolf Creek Pass
TTITLE9=Movin' on
TTITLE10=Highway 40 Blues
TTITLE11=If you need me - Dolly Parton
TTITLE12=Take me home country roads - Peter Hofmann
TTITLE13=If your heart ain't busy tonight - Tanya Tucker
TTITLE14=Whatever way the wind blows - Peter Hofmann
TTITLE15=I'll beg you pardon (I never promised you a rose garden)
TTITLE16=Fly Away
TTITLE17=Top of the world (is the love I found)
TTITLE18=Oh darling (why don't you care for me anymore) - Peter Hofmann
TTITLE19=You be so lonely
TTITLE20=New Way (to light up an old flame) - Peter Hofmann
TTITLE21=Heavens help me
TTITLE22=The Gambler - Peter Hofmann
TTITLE23=That will be the day
TTITLE24=Rose Garden (I never promised you a) - Lynn Anderson
TTITLE25=Ruby, don't take your love to town - Kenny Rogers
EXTD=ID3G: 2
EXTT0=
EXTT1=
EXTT2=
EXTT3=
EXTT4=
EXTT5=
EXTT6=
EXTT7=
EXTT8=
EXTT9=
EXTT10=
EXTT11=
EXTT12=
EXTT13=
EXTT14=
EXTT15=
EXTT16=
EXTT17=
EXTT18=
EXTT19=
EXTT20=
EXTT21=
EXTT22=
EXTT23=
EXTT24=
EXTT25=
PLAYORDER=
